<mxfile host="Electron" agent="Mozilla/5.0 (X11; Linux x86_64) AppleWebKit/537.36 (KHTML, like Gecko) draw.io/24.7.17 Chrome/128.0.6613.36 Electron/32.0.1 Safari/537.36" version="24.7.17">
  <diagram name="Page-1" id="ReHPZ0w7UNWxkFHxt1Or">
    <mxGraphModel dx="1368" dy="958" grid="1" gridSize="10" guides="1" tooltips="1" connect="1" arrows="1" fold="1" page="1" pageScale="1" pageWidth="850" pageHeight="1100" math="0" shadow="0">
      <root>
        <mxCell id="0" />
        <mxCell id="1" parent="0" />
        <mxCell id="D_yoNo9lO_DEBfpTBGEZ-9" value="" style="edgeStyle=orthogonalEdgeStyle;rounded=0;orthogonalLoop=1;jettySize=auto;html=1;" edge="1" parent="1" source="D_yoNo9lO_DEBfpTBGEZ-3" target="D_yoNo9lO_DEBfpTBGEZ-4">
          <mxGeometry relative="1" as="geometry" />
        </mxCell>
        <mxCell id="D_yoNo9lO_DEBfpTBGEZ-3" value="Core development" style="ellipse;whiteSpace=wrap;html=1;aspect=fixed;" vertex="1" parent="1">
          <mxGeometry x="40" y="40" width="110" height="110" as="geometry" />
        </mxCell>
        <mxCell id="D_yoNo9lO_DEBfpTBGEZ-7" value="" style="edgeStyle=orthogonalEdgeStyle;rounded=0;orthogonalLoop=1;jettySize=auto;html=1;" edge="1" parent="1" source="D_yoNo9lO_DEBfpTBGEZ-4" target="D_yoNo9lO_DEBfpTBGEZ-5">
          <mxGeometry relative="1" as="geometry" />
        </mxCell>
        <mxCell id="D_yoNo9lO_DEBfpTBGEZ-4" value="First use" style="ellipse;whiteSpace=wrap;html=1;aspect=fixed;" vertex="1" parent="1">
          <mxGeometry x="240" y="40" width="110" height="110" as="geometry" />
        </mxCell>
        <mxCell id="D_yoNo9lO_DEBfpTBGEZ-8" value="" style="edgeStyle=orthogonalEdgeStyle;rounded=0;orthogonalLoop=1;jettySize=auto;html=1;" edge="1" parent="1" source="D_yoNo9lO_DEBfpTBGEZ-5" target="D_yoNo9lO_DEBfpTBGEZ-6">
          <mxGeometry relative="1" as="geometry" />
        </mxCell>
        <mxCell id="D_yoNo9lO_DEBfpTBGEZ-5" value="Workshop use" style="ellipse;whiteSpace=wrap;html=1;aspect=fixed;" vertex="1" parent="1">
          <mxGeometry x="240" y="240" width="110" height="110" as="geometry" />
        </mxCell>
        <mxCell id="D_yoNo9lO_DEBfpTBGEZ-6" value="Operational&lt;br&gt;&amp;nbsp;service" style="ellipse;whiteSpace=wrap;html=1;aspect=fixed;" vertex="1" parent="1">
          <mxGeometry x="40" y="240" width="110" height="110" as="geometry" />
        </mxCell>
        <mxCell id="D_yoNo9lO_DEBfpTBGEZ-12" value="" style="endArrow=classic;html=1;rounded=0;exitX=0.109;exitY=0.227;exitDx=0;exitDy=0;exitPerimeter=0;entryX=1;entryY=1;entryDx=0;entryDy=0;strokeColor=#000000;dashed=1;" edge="1" parent="1" source="D_yoNo9lO_DEBfpTBGEZ-5" target="D_yoNo9lO_DEBfpTBGEZ-3">
          <mxGeometry width="50" height="50" relative="1" as="geometry">
            <mxPoint x="530" y="520" as="sourcePoint" />
            <mxPoint x="580" y="470" as="targetPoint" />
          </mxGeometry>
        </mxCell>
        <mxCell id="D_yoNo9lO_DEBfpTBGEZ-13" value="" style="endArrow=classic;html=1;rounded=0;exitX=0.5;exitY=0;exitDx=0;exitDy=0;entryX=0.5;entryY=1;entryDx=0;entryDy=0;dashed=1;" edge="1" parent="1" source="D_yoNo9lO_DEBfpTBGEZ-6" target="D_yoNo9lO_DEBfpTBGEZ-3">
          <mxGeometry width="50" height="50" relative="1" as="geometry">
            <mxPoint x="262" y="275" as="sourcePoint" />
            <mxPoint x="144" y="144" as="targetPoint" />
            <Array as="points">
              <mxPoint x="95" y="200" />
            </Array>
          </mxGeometry>
        </mxCell>
      </root>
    </mxGraphModel>
  </diagram>
</mxfile>
